# xmcd
#
# Track frame offsets: 
#        151
#        48509
#        71151
#        106563
#        144883
#        172100
#        210198
#        245445
#
# Disc length: 3816 seconds
#
# Revision: 0
# Processed by: cddbd v1.5.2PL0 Copyright (c) Steve Scherf et al.
# Submitted via: ExactAudioCopy v0.95b4
#
DISCID=670ee608
DTITLE=Eric Clapton - 1998-10-15 - ECEC - CD2
DYEAR=1998
DGENRE=Blues
TTITLE0=Old Love
TTITLE1=Crossroads
TTITLE2=Have You Ever Loved A Woman
TTITLE3=I Shot The Sheriff
TTITLE4=Wonderful Tonight
TTITLE5=Cocaine
TTITLE6=Before You Accuse Me
TTITLE7=You Were There
EXTD=
EXTT0=
EXTT1=
EXTT2=
EXTT3=
EXTT4=
EXTT5=
EXTT6=
EXTT7=
PLAYORDER=
